<svg xmlns="http://www.w3.org/2000/svg" width="121" height="31" viewBox="0 0 121 31" fill="none"><path d="M4.67995 13.65H9.03595L9.64795 10.536H11.178V15H0.647949V13.956L2.33995 13.578V3.46199L0.647949 3.08399V2.03999H6.55195V3.08399L4.67995 3.46199V13.65Z" fill="#FEFEFE"></path><path d="M14.6435 10.392C14.6435 11.208 14.7635 11.886 15.0035 12.426C15.3875 13.278 16.0475 13.704 16.9835 13.704C17.5235 13.704 18.0515 13.59 18.5675 13.362C19.0835 13.122 19.5275 12.756 19.8995 12.264L20.8715 13.02C20.4515 13.62 19.8815 14.13 19.1615 14.55C18.4535 14.97 17.5775 15.18 16.5335 15.18C15.6455 15.18 14.8835 15.006 14.2475 14.658C13.6235 14.298 13.1435 13.776 12.8075 13.092C12.6275 12.72 12.4955 12.312 12.4115 11.868C12.3275 11.412 12.2855 10.914 12.2855 10.374C12.2855 8.69399 12.6695 7.39799 13.4375 6.48599C14.2055 5.56199 15.3035 5.09999 16.7315 5.09999C17.3795 5.09999 17.9675 5.20199 18.4955 5.40599C19.0235 5.59799 19.4675 5.87999 19.8275 6.25199C20.1995 6.61199 20.4815 7.06199 20.6735 7.60199C20.8775 8.12999 20.9795 8.72999 20.9795 9.40199C20.9795 9.53399 20.9735 9.66599 20.9615 9.79799C20.9615 9.91799 20.9495 10.116 20.9255 10.392H14.6435ZM16.6955 6.34199C15.4595 6.34199 14.7815 7.30799 14.6615 9.23999H18.6215V8.77199C18.6215 7.99199 18.4535 7.39199 18.1175 6.97199C17.7815 6.55199 17.3075 6.34199 16.6955 6.34199Z" fill="#FEFEFE"></path><path d="M31.1075 15.108C31.1075 16.212 30.7115 17.022 29.9195 17.538C29.1275 18.054 27.8675 18.312 26.1395 18.312C25.5635 18.312 25.0235 18.27 24.5195 18.186C24.0155 18.114 23.5715 17.988 23.1875 17.808C22.8155 17.628 22.5215 17.394 22.3055 17.106C22.0895 16.818 21.9815 16.464 21.9815 16.044C21.9815 15.492 22.1555 15.048 22.5035 14.712C22.8515 14.376 23.3675 14.196 24.0515 14.172V14.1C23.1395 13.848 22.6835 13.392 22.6835 12.732C22.6835 12.552 22.7135 12.366 22.7735 12.174C22.8455 11.97 22.9535 11.784 23.0975 11.616C23.2535 11.436 23.4455 11.28 23.6735 11.148C23.9135 11.016 24.2015 10.926 24.5375 10.878C23.8895 10.722 23.3855 10.404 23.0255 9.92399C22.6775 9.43199 22.5035 8.85599 22.5035 8.19599C22.5035 7.23599 22.8215 6.47999 23.4575 5.92799C24.1055 5.37599 25.0415 5.09999 26.2655 5.09999C26.6615 5.09999 27.0095 5.11799 27.3095 5.15399C27.6215 5.18999 27.8975 5.24399 28.1375 5.31599C28.3895 5.38799 28.6115 5.47799 28.8035 5.58599C28.9955 5.68199 29.1815 5.79599 29.3615 5.92799L29.9735 5.71199L31.6295 4.91999H31.9355V6.77399H31.6295L30.3695 6.62999H29.9195C30.1595 7.00199 30.2795 7.48799 30.2795 8.08799C30.2795 9.07199 29.9735 9.85199 29.3615 10.428C28.7615 10.992 27.8795 11.274 26.7155 11.274C26.5835 11.274 26.4575 11.274 26.3375 11.274C26.2295 11.262 26.1155 11.25 25.9955 11.238C25.5275 11.298 25.1495 11.406 24.8615 11.562C24.5855 11.706 24.4475 11.916 24.4475 12.192C24.4475 12.408 24.5555 12.558 24.7715 12.642C24.9995 12.714 25.4195 12.75 26.0315 12.75H28.1195C30.1115 12.75 31.1075 13.536 31.1075 15.108ZM26.1575 14.406C25.3535 14.406 24.7715 14.532 24.4115 14.784C24.0515 15.036 23.8715 15.366 23.8715 15.774C23.8715 16.686 24.7295 17.142 26.4455 17.142C27.3695 17.142 28.0715 17.01 28.5515 16.746C29.0315 16.482 29.2715 16.086 29.2715 15.558C29.2715 15.138 29.0855 14.844 28.7135 14.676C28.3415 14.496 27.6995 14.406 26.7875 14.406H26.1575ZM24.6275 8.12399C24.6275 8.80799 24.7715 9.32399 25.0595 9.67199C25.3475 10.02 25.7615 10.194 26.3015 10.194C26.9495 10.194 27.4175 10.02 27.7055 9.67199C28.0055 9.32399 28.1555 8.80799 28.1555 8.12399C28.1555 7.48799 28.0055 7.00799 27.7055 6.68399C27.4175 6.35999 26.9495 6.19799 26.3015 6.19799C25.7615 6.19799 25.3475 6.35999 25.0595 6.68399C24.7715 7.00799 24.6275 7.48799 24.6275 8.12399Z" fill="#FEFEFE"></path><path d="M41.983 10.14C41.983 10.908 41.869 11.634 41.641 12.318C41.425 12.99 41.107 13.554 40.687 14.01C40.291 14.43 39.817 14.73 39.265 14.91C38.713 15.09 38.059 15.18 37.303 15.18C36.547 15.18 35.893 15.09 35.341 14.91C34.789 14.73 34.315 14.43 33.919 14.01C33.499 13.554 33.175 12.99 32.947 12.318C32.731 11.634 32.623 10.908 32.623 10.14C32.623 9.37199 32.731 8.65199 32.947 7.97999C33.175 7.29599 33.499 6.72599 33.919 6.26999C34.315 5.84999 34.789 5.54999 35.341 5.36999C35.893 5.18999 36.547 5.09999 37.303 5.09999C38.059 5.09999 38.713 5.18999 39.265 5.36999C39.817 5.54999 40.291 5.84999 40.687 6.26999C41.107 6.72599 41.425 7.29599 41.641 7.97999C41.869 8.65199 41.983 9.37199 41.983 10.14ZM35.665 13.254C35.989 13.734 36.535 13.974 37.303 13.974C38.071 13.974 38.617 13.734 38.941 13.254C39.325 12.666 39.517 11.628 39.517 10.14C39.517 8.65199 39.325 7.61399 38.941 7.02599C38.617 6.54599 38.071 6.30599 37.303 6.30599C36.535 6.30599 35.989 6.54599 35.665 7.02599C35.281 7.61399 35.089 8.65199 35.089 10.14C35.089 11.628 35.281 12.666 35.665 13.254Z" fill="#FEFEFE"></path><path d="M47.0185 14.082C47.3185 14.082 47.6005 14.052 47.8645 13.992C48.1285 13.932 48.3565 13.848 48.5485 13.74C48.7525 13.632 48.9085 13.5 49.0165 13.344C49.1365 13.176 49.1965 12.99 49.1965 12.786C49.1965 12.546 49.1185 12.336 48.9625 12.156C48.8185 11.976 48.6205 11.82 48.3685 11.688C48.1285 11.556 47.8525 11.442 47.5405 11.346C47.2405 11.238 46.9405 11.136 46.6405 11.04C46.2685 10.932 45.9025 10.8 45.5425 10.644C45.1945 10.476 44.8765 10.272 44.5885 10.032C44.3125 9.77999 44.0905 9.48599 43.9225 9.14999C43.7545 8.81399 43.6705 8.41799 43.6705 7.96199C43.6705 7.09799 43.9825 6.40799 44.6065 5.89199C45.2305 5.36399 46.1245 5.09999 47.2885 5.09999C47.8405 5.09999 48.3385 5.15999 48.7825 5.27999C49.2265 5.39999 49.6045 5.57399 49.9165 5.80199C50.2285 6.01799 50.4685 6.28199 50.6365 6.59399C50.8165 6.89399 50.9065 7.22399 50.9065 7.58399C50.9065 8.00399 50.7925 8.32199 50.5645 8.53799C50.3485 8.75399 50.0485 8.86199 49.6645 8.86199C49.2805 8.86199 48.9805 8.77199 48.7645 8.59199C48.5485 8.39999 48.4405 8.17799 48.4405 7.92599C48.4405 7.72199 48.5005 7.52999 48.6205 7.34999C48.7405 7.15799 48.8965 7.01399 49.0885 6.91799C48.9205 6.68999 48.6925 6.51599 48.4045 6.39599C48.1285 6.26399 47.7805 6.19799 47.3605 6.19799C46.7965 6.19799 46.3765 6.31799 46.1005 6.55799C45.8245 6.78599 45.6865 7.10999 45.6865 7.52999C45.6865 8.00999 45.8425 8.36999 46.1545 8.60999C46.4665 8.83799 46.8865 9.02999 47.4145 9.18599C47.8945 9.32999 48.3685 9.47999 48.8365 9.63599C49.3045 9.79199 49.7185 9.98399 50.0785 10.212C50.4505 10.44 50.7445 10.722 50.9605 11.058C51.1885 11.382 51.3025 11.778 51.3025 12.246C51.3025 12.714 51.1885 13.134 50.9605 13.506C50.7445 13.866 50.4385 14.172 50.0425 14.424C49.6585 14.664 49.2025 14.85 48.6745 14.982C48.1465 15.114 47.5765 15.18 46.9645 15.18C45.8125 15.18 44.9125 14.97 44.2645 14.55C43.6285 14.13 43.3105 13.56 43.3105 12.84C43.3105 12.348 43.4485 11.964 43.7245 11.688C44.0005 11.412 44.3305 11.274 44.7145 11.274C45.0025 11.274 45.2665 11.358 45.5065 11.526C45.7585 11.682 45.8845 11.91 45.8845 12.21C45.8845 12.426 45.8185 12.636 45.6865 12.84C45.5545 13.044 45.4045 13.194 45.2365 13.29C45.3565 13.482 45.5545 13.662 45.8305 13.83C46.1065 13.998 46.5025 14.082 47.0185 14.082Z" fill="#FEFEFE"></path><path d="M52.4837 6.28799V5.27999H56.1557V13.65L57.5417 13.992V15H52.4837V13.992L53.8697 13.65V6.62999L52.4837 6.28799ZM53.6717 2.54399C53.6717 2.15999 53.7857 1.84799 54.0137 1.60799C54.2537 1.36799 54.5837 1.24799 55.0037 1.24799C55.4237 1.24799 55.7537 1.36799 55.9937 1.60799C56.2337 1.84799 56.3537 2.15999 56.3537 2.54399C56.3537 2.92799 56.2337 3.23999 55.9937 3.47999C55.7657 3.70799 55.4357 3.82199 55.0037 3.82199C54.5717 3.82199 54.2417 3.70799 54.0137 3.47999C53.7857 3.23999 53.6717 2.92799 53.6717 2.54399Z" fill="#FEFEFE"></path><path d="M57.9747 5.53199L59.7387 5.27999L59.9547 3.04799L62.0067 2.75999V5.27999H64.3107V6.44999H62.0067V12.336C62.0067 12.744 62.0127 13.026 62.0247 13.182C62.0367 13.326 62.0607 13.446 62.0967 13.542C62.1327 13.614 62.1987 13.668 62.2947 13.704C62.3907 13.74 62.5467 13.758 62.7627 13.758H64.0227V14.55C63.3267 14.766 62.7087 14.922 62.1687 15.018C61.6407 15.126 61.2207 15.18 60.9087 15.18C60.3687 15.18 60.0207 14.958 59.8647 14.514C59.8047 14.37 59.7627 14.19 59.7387 13.974C59.7267 13.746 59.7207 13.404 59.7207 12.948V6.44999H57.9747V5.53199Z" fill="#FEFEFE"></path><path d="M67.5009 10.392C67.5009 11.208 67.6209 11.886 67.8609 12.426C68.2449 13.278 68.9049 13.704 69.8409 13.704C70.3809 13.704 70.9089 13.59 71.4249 13.362C71.9409 13.122 72.3849 12.756 72.7569 12.264L73.7289 13.02C73.3089 13.62 72.7389 14.13 72.0189 14.55C71.3109 14.97 70.4349 15.18 69.3909 15.18C68.5029 15.18 67.7409 15.006 67.1049 14.658C66.4809 14.298 66.0009 13.776 65.6649 13.092C65.4849 12.72 65.3529 12.312 65.2689 11.868C65.1849 11.412 65.1429 10.914 65.1429 10.374C65.1429 8.69399 65.5269 7.39799 66.2949 6.48599C67.0629 5.56199 68.1609 5.09999 69.5889 5.09999C70.2369 5.09999 70.8249 5.20199 71.3529 5.40599C71.8809 5.59799 72.3249 5.87999 72.6849 6.25199C73.0569 6.61199 73.3389 7.06199 73.5309 7.60199C73.7349 8.12999 73.8369 8.72999 73.8369 9.40199C73.8369 9.53399 73.8309 9.66599 73.8189 9.79799C73.8189 9.91799 73.8069 10.116 73.7829 10.392H67.5009ZM69.5529 6.34199C68.3169 6.34199 67.6389 7.30799 67.5189 9.23999H71.4789V8.77199C71.4789 7.99199 71.3109 7.39199 70.9749 6.97199C70.6389 6.55199 70.1649 6.34199 69.5529 6.34199Z" fill="#FEFEFE"></path><path d="M75.2709 14.064C75.2709 13.608 75.3969 13.254 75.6489 13.002C75.9009 12.738 76.2429 12.606 76.6749 12.606C77.1069 12.606 77.4489 12.738 77.7009 13.002C77.9649 13.266 78.0969 13.614 78.0969 14.046C78.0969 14.478 77.9709 14.82 77.7189 15.072C77.4669 15.324 77.1129 15.45 76.6569 15.45C76.2249 15.45 75.8829 15.33 75.6309 15.09C75.3909 14.85 75.2709 14.508 75.2709 14.064Z" fill="#FEFEFE"></path><path d="M86.3062 13.65L83.9302 10.482L82.9221 11.328V13.65L84.3082 13.992V15H79.2502V13.992L80.6361 13.65V2.30999L79.2502 1.96799V0.959991H82.9221V9.92399L85.9821 6.61199L85.0462 6.28799V5.27999H89.4562V6.28799L87.8721 6.62999L85.4062 9.14999L88.7721 13.686L89.7262 13.992V15H85.2441V13.992L86.3062 13.65Z" fill="#FEFEFE"></path><path d="M97.5269 11.274H99.0929V15H90.5789V13.722L96.2129 6.55799H92.8109L92.3789 8.91599H90.8129V5.27999H99.0209V6.55799L93.4049 13.722H97.1669L97.5269 11.274Z" fill="#FEFEFE"></path><path d="M3.43194 19.432C4.55194 19.432 5.36794 19.652 5.87994 20.092C6.39194 20.532 6.64794 21.152 6.64794 21.952C6.64794 22.424 6.53994 22.868 6.32394 23.284C6.11594 23.692 5.75994 24.024 5.25594 24.28C4.75994 24.536 4.08394 24.664 3.22794 24.664H2.24394V28H1.16394V19.432H3.43194ZM3.33594 20.356H2.24394V23.74H3.10794C3.92394 23.74 4.53194 23.608 4.93194 23.344C5.33194 23.08 5.53194 22.632 5.53194 22C5.53194 21.448 5.35594 21.036 5.00394 20.764C4.65194 20.492 4.09594 20.356 3.33594 20.356Z" fill="#DADADA"></path><path d="M11.3816 21.46C12.1656 21.46 12.7456 21.632 13.1216 21.976C13.4976 22.32 13.6856 22.868 13.6856 23.62V28H12.9176L12.7136 27.088H12.6656C12.3856 27.44 12.0896 27.7 11.7776 27.868C11.4736 28.036 11.0496 28.12 10.5056 28.12C9.92157 28.12 9.43757 27.968 9.05357 27.664C8.66957 27.352 8.47757 26.868 8.47757 26.212C8.47757 25.572 8.72956 25.08 9.23356 24.736C9.73756 24.384 10.5136 24.192 11.5616 24.16L12.6536 24.124V23.74C12.6536 23.204 12.5376 22.832 12.3056 22.624C12.0736 22.416 11.7456 22.312 11.3216 22.312C10.9856 22.312 10.6656 22.364 10.3616 22.468C10.0576 22.564 9.77357 22.676 9.50957 22.804L9.18557 22.012C9.46557 21.86 9.79757 21.732 10.1816 21.628C10.5656 21.516 10.9656 21.46 11.3816 21.46ZM12.6416 24.856L11.6936 24.892C10.8936 24.924 10.3376 25.052 10.0256 25.276C9.72157 25.5 9.56956 25.816 9.56956 26.224C9.56956 26.584 9.67757 26.848 9.89357 27.016C10.1176 27.184 10.4016 27.268 10.7456 27.268C11.2896 27.268 11.7416 27.12 12.1016 26.824C12.4616 26.52 12.6416 26.056 12.6416 25.432V24.856Z" fill="#DADADA"></path><path d="M18.0241 21.448C18.7601 21.448 19.3441 21.596 19.7761 21.892C20.2161 22.18 20.4361 22.596 20.4361 23.14C20.4361 23.532 20.3281 23.844 20.1121 24.076C19.8961 24.3 19.6001 24.464 19.2241 24.568V24.616C19.4801 24.688 19.7161 24.788 19.9321 24.916C20.1481 25.044 20.3201 25.212 20.4481 25.42C20.5841 25.628 20.6521 25.896 20.6521 26.224C20.6521 26.76 20.4281 27.212 19.9801 27.58C19.5401 27.94 18.8481 28.12 17.9041 28.12C17.4401 28.12 17.0201 28.08 16.6441 28C16.2681 27.928 15.9561 27.828 15.7081 27.7V26.752C15.9801 26.88 16.3001 26.996 16.6681 27.1C17.0441 27.204 17.4521 27.256 17.8921 27.256C18.3721 27.256 18.7761 27.176 19.1041 27.016C19.4401 26.848 19.6081 26.564 19.6081 26.164C19.6081 25.444 18.9961 25.084 17.7721 25.084H16.9081V24.22H17.6041C18.1561 24.22 18.5961 24.148 18.9241 24.004C19.2601 23.852 19.4281 23.596 19.4281 23.236C19.4281 22.932 19.3001 22.704 19.0441 22.552C18.7961 22.4 18.4361 22.324 17.9641 22.324C17.6121 22.324 17.3001 22.36 17.0281 22.432C16.7641 22.496 16.4721 22.596 16.1521 22.732L15.7801 21.892C16.4521 21.596 17.2001 21.448 18.0241 21.448Z" fill="#DADADA"></path><path d="M25.9349 21.448C26.7269 21.448 27.3629 21.724 27.8429 22.276C28.3309 22.828 28.5749 23.66 28.5749 24.772C28.5749 25.868 28.3309 26.7 27.8429 27.268C27.3629 27.836 26.7229 28.12 25.9229 28.12C25.4269 28.12 25.0149 28.028 24.6869 27.844C24.3669 27.652 24.1149 27.432 23.9309 27.184H23.8589C23.8749 27.32 23.8909 27.492 23.9069 27.7C23.9229 27.908 23.9309 28.088 23.9309 28.24V30.88H22.8749V21.568H23.7389L23.8829 22.444H23.9309C24.1229 22.164 24.3749 21.928 24.6869 21.736C24.9989 21.544 25.4149 21.448 25.9349 21.448ZM25.7429 22.336C25.0869 22.336 24.6229 22.52 24.3509 22.888C24.0869 23.256 23.9469 23.816 23.9309 24.568V24.772C23.9309 25.564 24.0589 26.176 24.3149 26.608C24.5789 27.032 25.0629 27.244 25.7669 27.244C26.1589 27.244 26.4789 27.136 26.7269 26.92C26.9829 26.704 27.1709 26.412 27.2909 26.044C27.4189 25.668 27.4829 25.24 27.4829 24.76C27.4829 24.024 27.3389 23.436 27.0509 22.996C26.7709 22.556 26.3349 22.336 25.7429 22.336Z" fill="#DADADA"></path><path d="M33.3538 21.46C34.1378 21.46 34.7177 21.632 35.0938 21.976C35.4697 22.32 35.6578 22.868 35.6578 23.62V28H34.8898L34.6858 27.088H34.6378C34.3578 27.44 34.0618 27.7 33.7498 27.868C33.4458 28.036 33.0218 28.12 32.4778 28.12C31.8938 28.12 31.4098 27.968 31.0258 27.664C30.6418 27.352 30.4498 26.868 30.4498 26.212C30.4498 25.572 30.7018 25.08 31.2058 24.736C31.7098 24.384 32.4858 24.192 33.5338 24.16L34.6258 24.124V23.74C34.6258 23.204 34.5098 22.832 34.2778 22.624C34.0458 22.416 33.7178 22.312 33.2938 22.312C32.9578 22.312 32.6378 22.364 32.3338 22.468C32.0298 22.564 31.7458 22.676 31.4818 22.804L31.1578 22.012C31.4378 21.86 31.7698 21.732 32.1538 21.628C32.5378 21.516 32.9378 21.46 33.3538 21.46ZM34.6138 24.856L33.6658 24.892C32.8658 24.924 32.3098 25.052 31.9978 25.276C31.6938 25.5 31.5418 25.816 31.5418 26.224C31.5418 26.584 31.6498 26.848 31.8658 27.016C32.0898 27.184 32.3738 27.268 32.7178 27.268C33.2618 27.268 33.7137 27.12 34.0737 26.824C34.4337 26.52 34.6138 26.056 34.6138 25.432V24.856Z" fill="#DADADA"></path><path d="M37.9683 24.136C37.9683 22.728 38.1803 21.632 38.6043 20.848C39.0283 20.056 39.7123 19.56 40.6563 19.36C41.1763 19.248 41.6843 19.148 42.1803 19.06C42.6763 18.972 43.1403 18.892 43.5723 18.82L43.7523 19.744C43.4723 19.784 43.1563 19.836 42.8043 19.9C42.4523 19.956 42.1043 20.016 41.7603 20.08C41.4163 20.136 41.1203 20.192 40.8723 20.248C40.3523 20.36 39.9403 20.632 39.6363 21.064C39.3323 21.488 39.1603 22.152 39.1203 23.056H39.1923C39.3043 22.904 39.4563 22.748 39.6483 22.588C39.8483 22.428 40.0843 22.292 40.3563 22.18C40.6363 22.068 40.9523 22.012 41.3043 22.012C42.1363 22.012 42.7643 22.28 43.1883 22.816C43.6123 23.352 43.8243 24.048 43.8243 24.904C43.8243 25.616 43.7003 26.212 43.4523 26.692C43.2043 27.172 42.8603 27.532 42.4203 27.772C41.9803 28.004 41.4683 28.12 40.8843 28.12C39.9963 28.12 39.2883 27.78 38.7603 27.1C38.2323 26.42 37.9683 25.432 37.9683 24.136ZM40.9683 27.244C41.4883 27.244 41.9083 27.076 42.2283 26.74C42.5483 26.404 42.7083 25.828 42.7083 25.012C42.7083 24.356 42.5843 23.84 42.3363 23.464C42.0963 23.08 41.6963 22.888 41.1363 22.888C40.7843 22.888 40.4643 22.968 40.1763 23.128C39.8883 23.28 39.6483 23.456 39.4563 23.656C39.2643 23.856 39.1283 24.024 39.0483 24.16C39.0483 24.552 39.0763 24.932 39.1323 25.3C39.1883 25.668 39.2843 26 39.4203 26.296C39.5643 26.584 39.7603 26.816 40.0083 26.992C40.2643 27.16 40.5843 27.244 40.9683 27.244Z" fill="#DADADA"></path><path d="M51.7399 24.772C51.7399 25.836 51.4679 26.66 50.9239 27.244C50.3879 27.828 49.6599 28.12 48.7399 28.12C48.1719 28.12 47.6639 27.992 47.2159 27.736C46.7759 27.472 46.4279 27.092 46.1719 26.596C45.9159 26.092 45.7879 25.484 45.7879 24.772C45.7879 23.708 46.0559 22.888 46.5919 22.312C47.1279 21.736 47.8559 21.448 48.7759 21.448C49.3599 21.448 49.8719 21.58 50.3119 21.844C50.7599 22.1 51.1079 22.476 51.3559 22.972C51.6119 23.46 51.7399 24.06 51.7399 24.772ZM46.8799 24.772C46.8799 25.532 47.0279 26.136 47.3239 26.584C47.6279 27.024 48.1079 27.244 48.7639 27.244C49.4119 27.244 49.8879 27.024 50.1919 26.584C50.4959 26.136 50.6479 25.532 50.6479 24.772C50.6479 24.012 50.4959 23.416 50.1919 22.984C49.8879 22.552 49.4079 22.336 48.7519 22.336C48.0959 22.336 47.6199 22.552 47.3239 22.984C47.0279 23.416 46.8799 24.012 46.8799 24.772Z" fill="#DADADA"></path><path d="M58.3963 22.456H56.2963V28H55.2523V22.456H53.1763V21.568H58.3963V22.456Z" fill="#DADADA"></path><path d="M64.1274 21.568H65.2794L62.5314 24.664L65.5074 28H64.2834L61.3794 24.736V28H60.3234V21.568H61.3794V24.688L64.1274 21.568Z" fill="#DADADA"></path><path d="M69.7709 21.46C70.5549 21.46 71.1349 21.632 71.5109 21.976C71.8869 22.32 72.0749 22.868 72.0749 23.62V28H71.3069L71.1029 27.088H71.0549C70.7749 27.44 70.4789 27.7 70.1669 27.868C69.8629 28.036 69.4389 28.12 68.8949 28.12C68.3109 28.12 67.8269 27.968 67.4429 27.664C67.0589 27.352 66.8669 26.868 66.8669 26.212C66.8669 25.572 67.1189 25.08 67.6229 24.736C68.1269 24.384 68.9029 24.192 69.9509 24.16L71.0429 24.124V23.74C71.0429 23.204 70.9269 22.832 70.6949 22.624C70.4629 22.416 70.1349 22.312 69.7109 22.312C69.3749 22.312 69.0549 22.364 68.7509 22.468C68.4469 22.564 68.1629 22.676 67.8989 22.804L67.5749 22.012C67.8549 21.86 68.1869 21.732 68.5709 21.628C68.9549 21.516 69.3549 21.46 69.7709 21.46ZM71.0309 24.856L70.0829 24.892C69.2829 24.924 68.7269 25.052 68.4149 25.276C68.1109 25.5 67.9589 25.816 67.9589 26.224C67.9589 26.584 68.0669 26.848 68.2829 27.016C68.5069 27.184 68.7909 27.268 69.1349 27.268C69.6789 27.268 70.1309 27.12 70.4909 26.824C70.8509 26.52 71.0309 26.056 71.0309 25.432V24.856Z" fill="#DADADA"></path><path d="M81.0084 28.12C80.4404 28.12 79.9324 28.004 79.4844 27.772C79.0444 27.54 78.6964 27.18 78.4404 26.692C78.1924 26.204 78.0684 25.58 78.0684 24.82C78.0684 24.028 78.2004 23.384 78.4644 22.888C78.7284 22.392 79.0844 22.028 79.5324 21.796C79.9884 21.564 80.5044 21.448 81.0804 21.448C81.4084 21.448 81.7244 21.484 82.0284 21.556C82.3324 21.62 82.5804 21.7 82.7724 21.796L82.4484 22.672C82.2564 22.6 82.0324 22.532 81.7764 22.468C81.5204 22.404 81.2804 22.372 81.0564 22.372C79.7924 22.372 79.1604 23.184 79.1604 24.808C79.1604 25.584 79.3124 26.18 79.6164 26.596C79.9284 27.004 80.3884 27.208 80.9964 27.208C81.3484 27.208 81.6564 27.172 81.9204 27.1C82.1924 27.028 82.4404 26.94 82.6644 26.836V27.772C82.4484 27.884 82.2084 27.968 81.9444 28.024C81.6884 28.088 81.3764 28.12 81.0084 28.12Z" fill="#DADADA"></path><path d="M87.29 21.46C88.074 21.46 88.654 21.632 89.03 21.976C89.406 22.32 89.594 22.868 89.594 23.62V28H88.826L88.622 27.088H88.574C88.294 27.44 87.998 27.7 87.686 27.868C87.382 28.036 86.958 28.12 86.414 28.12C85.83 28.12 85.346 27.968 84.962 27.664C84.578 27.352 84.386 26.868 84.386 26.212C84.386 25.572 84.638 25.08 85.142 24.736C85.646 24.384 86.422 24.192 87.47 24.16L88.562 24.124V23.74C88.562 23.204 88.446 22.832 88.214 22.624C87.982 22.416 87.654 22.312 87.23 22.312C86.894 22.312 86.574 22.364 86.27 22.468C85.966 22.564 85.682 22.676 85.418 22.804L85.094 22.012C85.374 21.86 85.706 21.732 86.09 21.628C86.474 21.516 86.874 21.46 87.29 21.46ZM88.55 24.856L87.602 24.892C86.802 24.924 86.246 25.052 85.934 25.276C85.63 25.5 85.478 25.816 85.478 26.224C85.478 26.584 85.586 26.848 85.802 27.016C86.026 27.184 86.31 27.268 86.654 27.268C87.198 27.268 87.65 27.12 88.01 26.824C88.37 26.52 88.55 26.056 88.55 25.432V24.856Z" fill="#DADADA"></path><path d="M93.2366 21.568V25.492C93.2366 25.588 93.2326 25.732 93.2246 25.924C93.2166 26.116 93.2046 26.308 93.1886 26.5C93.1806 26.692 93.1726 26.844 93.1646 26.956L96.6086 21.568H97.9046V28H96.9206V24.208C96.9206 24.08 96.9206 23.912 96.9206 23.704C96.9286 23.496 96.9366 23.292 96.9446 23.092C96.9526 22.884 96.9606 22.728 96.9686 22.624L93.5486 28H92.2406V21.568H93.2366ZM97.4486 18.904C97.3926 19.504 97.1886 19.96 96.8366 20.272C96.4926 20.576 95.9406 20.728 95.1806 20.728C94.3966 20.728 93.8406 20.576 93.5126 20.272C93.1926 19.968 93.0126 19.512 92.9726 18.904H93.9566C93.9966 19.336 94.1086 19.628 94.2926 19.78C94.4846 19.924 94.7886 19.996 95.2046 19.996C95.5726 19.996 95.8606 19.92 96.0686 19.768C96.2846 19.608 96.4126 19.32 96.4526 18.904H97.4486Z" fill="#DADADA"></path><path d="M105.051 22.456H102.951V28H101.908V22.456H99.8315V21.568H105.051V22.456Z" fill="#DADADA"></path><path d="M112.453 24.772C112.453 25.836 112.181 26.66 111.637 27.244C111.101 27.828 110.373 28.12 109.453 28.12C108.885 28.12 108.377 27.992 107.929 27.736C107.489 27.472 107.141 27.092 106.885 26.596C106.629 26.092 106.501 25.484 106.501 24.772C106.501 23.708 106.769 22.888 107.305 22.312C107.841 21.736 108.569 21.448 109.489 21.448C110.073 21.448 110.585 21.58 111.025 21.844C111.473 22.1 111.821 22.476 112.069 22.972C112.325 23.46 112.453 24.06 112.453 24.772ZM107.593 24.772C107.593 25.532 107.741 26.136 108.037 26.584C108.341 27.024 108.821 27.244 109.477 27.244C110.125 27.244 110.601 27.024 110.905 26.584C111.209 26.136 111.361 25.532 111.361 24.772C111.361 24.012 111.209 23.416 110.905 22.984C110.601 22.552 110.121 22.336 109.465 22.336C108.809 22.336 108.333 22.552 108.037 22.984C107.741 23.416 107.593 24.012 107.593 24.772Z" fill="#DADADA"></path><path d="M119.959 23.188C119.959 23.588 119.839 23.9 119.599 24.124C119.359 24.348 119.051 24.5 118.675 24.58V24.628C119.075 24.684 119.423 24.828 119.719 25.06C120.015 25.284 120.163 25.636 120.163 26.116C120.163 26.66 119.959 27.112 119.551 27.472C119.151 27.824 118.487 28 117.559 28H114.787V21.568H117.547C118.003 21.568 118.411 21.62 118.771 21.724C119.139 21.82 119.427 21.988 119.635 22.228C119.851 22.46 119.959 22.78 119.959 23.188ZM118.891 23.32C118.891 23.016 118.779 22.796 118.555 22.66C118.339 22.516 117.983 22.444 117.487 22.444H115.843V24.208H117.295C118.359 24.208 118.891 23.912 118.891 23.32ZM119.071 26.116C119.071 25.748 118.931 25.484 118.651 25.324C118.371 25.164 117.959 25.084 117.415 25.084H115.843V27.148H117.439C117.967 27.148 118.371 27.072 118.651 26.92C118.931 26.76 119.071 26.492 119.071 26.116Z" fill="#DADADA"></path></svg>